<?xml version="1.0" encoding="utf-8"?>
<!-- Generator: Adobe Illustrator 25.2.1, SVG Export Plug-In . SVG Version: 6.00 Build 0)  -->
<svg version="1.1" id="Layer_1" xmlns="http://www.w3.org/2000/svg" xmlns:xlink="http://www.w3.org/1999/xlink" x="0px" y="0px"
	 viewBox="0 0 406.2 123.8" style="enable-background:new 0 0 406.2 123.8;" xml:space="preserve">
<style type="text/css">
	.st0{fill:#8B5E3C;}
</style>
<g>
	<path class="st0" d="M180.3,31.5c0,7.3-4.3,12.7-14.2,12.7h-39.8V0.6h38.4c9.9,0,12.9,5.1,12.9,11.5c0,3.1-1.2,6.1-3.4,8.5
		C177.9,22.8,180.3,26.5,180.3,31.5L180.3,31.5L180.3,31.5z M137.5,17.7h23.2c3,0,5.7,0,5.7-4.5s-2.7-4.5-5.8-4.5h-23.1L137.5,17.7
		L137.5,17.7L137.5,17.7z M169.1,31c0-4.6-2.7-4.6-5.7-4.6h-25.9v9.2h25.9C166.4,35.5,169.1,35.5,169.1,31L169.1,31L169.1,31
		L169.1,31z"/>
	<path class="st0" d="M222.7,34.9h-26.1l-4.7,9.3h-12.3l22.5-43.6h15.1l22.5,43.6h-12.4L222.7,34.9L222.7,34.9L222.7,34.9
		L222.7,34.9z M218.5,26.6l-8.8-17.7l-8.9,17.7H218.5z"/>
	<path class="st0" d="M283.9,31.3l8,12.9h-13.2l-7-11.7h-18.1v11.7h-11.2V0.6h34.3c9.9,0,16.7,6.3,16.7,16
		C293.4,23.7,289.8,28.9,283.9,31.3L283.9,31.3L283.9,31.3z M253.6,23.2h19.9c3.4,0,8.6,0,8.6-6.5s-5.2-6.6-8.6-6.6h-19.9
		L253.6,23.2L253.6,23.2L253.6,23.2z"/>
	<path class="st0" d="M296.4,22.4c0-14.4,8.2-22.4,27.4-22.4s27.4,8,27.4,22.4s-8.3,22.5-27.4,22.5S296.4,36.9,296.4,22.4z
		 M340,22.4c0-8.8-4.5-12.9-16.2-12.9s-16.2,4.1-16.2,12.9s4.5,13.1,16.2,13.1S340,31.3,340,22.4z"/>
	<path class="st0" d="M396.7,31.3l8,12.9h-13.2l-7-11.7h-18v11.7h-11.2V0.6h34.3c9.9,0,16.7,6.3,16.7,16
		C406.2,23.7,402.6,28.9,396.7,31.3L396.7,31.3L396.7,31.3z M366.5,23.2c4.1,0.1,8.2,0.1,12.5,0c3.6,0,7.2-0.1,10.7-0.2
		c0.5,0,2.4-0.2,3.9-1.7c1.5-1.6,1.5-3.5,1.5-4.6c0-6.6-5.2-6.6-8.6-6.6h-19.9L366.5,23.2L366.5,23.2L366.5,23.2L366.5,23.2z"/>
	<path class="st0" d="M185.9,94.8h-10V68.1l-16.2,26.7h-7.2l-16.2-26.7v26.7h-10v-39h13.5l16.3,27.5l16.3-27.5h13.5L185.9,94.8
		L185.9,94.8L185.9,94.8z"/>
	<path class="st0" d="M200.4,63.8v7.9h31.2v7.2h-31.2v7.9h31.2v7.9h-41.2v-39h41.2v8L200.4,63.8L200.4,63.8L200.4,63.8L200.4,63.8z"
		/>
	<path class="st0" d="M283.5,83.4c0,6.6-3.8,11.4-12.7,11.4h-35.6v-39h34.3c8.9,0,11.6,4.5,11.6,10.2c0,2.7-1.1,5.4-3,7.6
		C281.3,75.7,283.5,79,283.5,83.4L283.5,83.4C283.5,83.4,283.5,83.4,283.5,83.4z M245.2,71.1h20.7c2.7,0,5.1,0,5.1-4.1s-2.5-4-5.2-4
		h-20.6L245.2,71.1L245.2,71.1L245.2,71.1z M273.4,82.9c0-4.1-2.5-4.1-5.1-4.1h-23.2V87h23.2C271,87,273.4,87,273.4,82.9L273.4,82.9
		L273.4,82.9L273.4,82.9z"/>
	<path class="st0" d="M296.7,63.8v7.9h31.2v7.2h-31.2v7.9h31.2v7.9h-41.2v-39h41.2v8L296.7,63.8L296.7,63.8L296.7,63.8L296.7,63.8z"
		/>
	<path class="st0" d="M371.6,86.4v8.4h-40.1v-39h10v30.5H371.6L371.6,86.4z"/>
</g>
<g>
	<path class="st0" d="M0,0.8v123h19.6V35.1c0-8.1,6.6-14.7,14.6-14.7h74.1V0.8H0z"/>
	<path class="st0" d="M92.2,24.8H36.1c-6.6,0-11.9,5.3-11.9,11.9v36.2h68c8.5,0,15.5-6.9,15.5-15.5V40.3
		C107.7,31.7,100.8,24.8,92.2,24.8L92.2,24.8L92.2,24.8z M75.3,51.4c0,1-0.8,1.8-1.8,1.8H56.3v-5h17.1c1,0,1.8,0.8,1.8,1.8V51.4
		L75.3,51.4L75.3,51.4z"/>
	<path class="st0" d="M92.1,75.7h-68v48.1h68c8.5,0,15.5-6.9,15.5-15.5V91.1C107.5,82.6,100.6,75.7,92.1,75.7
		C92.1,75.7,92.1,75.7,92.1,75.7z M75.3,101.2c0,1-0.8,1.8-1.8,1.8H56.4v-5h17.1c1,0,1.8,0.8,1.8,1.8V101.2L75.3,101.2L75.3,101.2z"
		/>
</g>
<g>
	<path class="st0" d="M127.1,102.4h7v1.3h-5.6v3.1h5.2v1.3h-5.2v4.5h-1.4L127.1,102.4L127.1,102.4L127.1,102.4z"/>
	<path class="st0" d="M140.9,109.4v-7h1.4v7.1c0,1.1,0.7,1.8,1.8,1.8h2.2c1.1,0,1.8-0.7,1.8-1.8v-7.1h1.4v7c0,1.9-1.3,3.2-3.2,3.2
		h-2.1C142.2,112.6,140.9,111.4,140.9,109.4L140.9,109.4L140.9,109.4z"/>
	<path class="st0" d="M156.9,102.4h4.1c2.9,0,3.8,0.7,3.8,2.9c0,1.8-0.6,2.6-2.3,2.8l2.8,4.5h-1.7l-2.7-4.4h-2.6v4.4h-1.4
		L156.9,102.4L156.9,102.4L156.9,102.4z M158.3,107h2.2c2.2,0,2.9-0.4,2.9-1.7s-0.7-1.7-2.9-1.7h-2.2V107L158.3,107L158.3,107
		L158.3,107z"/>
	<path class="st0" d="M172.4,112.6v-10.2h2.5l4.6,9.4v-9.4h1.4v10.2h-2.5l-4.6-9.4v9.4H172.4z"/>
	<path class="st0" d="M188.7,102.4h1.4v10.2h-1.4V102.4z"/>
	<path class="st0" d="M196.9,102.4h9.1v1.3h-3.8v8.9h-1.4v-8.9h-3.8L196.9,102.4L196.9,102.4L196.9,102.4z"/>
	<path class="st0" d="M212.5,109.4v-7h1.4v7.1c0,1.1,0.7,1.8,1.8,1.8h2.2c1.1,0,1.8-0.7,1.8-1.8v-7.1h1.4v7c0,1.9-1.3,3.2-3.2,3.2
		h-2.1C213.8,112.6,212.5,111.4,212.5,109.4L212.5,109.4L212.5,109.4z"/>
	<path class="st0" d="M228.5,102.4h4.1c2.9,0,3.8,0.7,3.8,2.9c0,1.8-0.6,2.6-2.3,2.8l2.8,4.5h-1.7l-2.7-4.4h-2.6v4.4h-1.4
		L228.5,102.4L228.5,102.4L228.5,102.4z M229.9,107h2.2c2.2,0,2.9-0.4,2.9-1.7s-0.7-1.7-2.9-1.7h-2.2V107L229.9,107L229.9,107
		L229.9,107z"/>
	<path class="st0" d="M244,112.6v-10.2h7.2v1.3h-5.8v3.1h5.1v1.3h-5.1v3.1h5.9v1.5H244z"/>
	<path class="st0" d="M271.5,102.1c2.2,0,3.8,1,4.6,2.9l-1.5,0.2c-0.5-1.1-1.5-1.7-2.7-1.7h-0.8c-1.9,0-3.3,1.3-3.3,3.2v1.5
		c0,1.9,1.4,3.2,3.3,3.2h0.8c1.5,0,2.6-0.8,3-2.1l1.5,0.2c-0.7,2.1-2.5,3.3-4.9,3.3c-3.1,0-5.3-2.2-5.3-5.4S268.4,102.1,271.5,102.1
		L271.5,102.1L271.5,102.1L271.5,102.1z"/>
	<path class="st0" d="M288.3,102.1c3.1,0,5.3,2.2,5.3,5.4s-2.1,5.4-5.3,5.4s-5.3-2.2-5.3-5.4S285.1,102.1,288.3,102.1z M284.6,106.8
		v1.5c0,1.9,1.4,3.2,3.3,3.2h0.8c2,0,3.3-1.3,3.3-3.2v-1.5c0-1.9-1.3-3.2-3.3-3.2h-0.8C285.9,103.6,284.6,104.9,284.6,106.8z"/>
	<path class="st0" d="M300.7,112.6v-10.2h2.5l3.4,9.2l3.4-9.2h2.5v10.2H311v-9l-3.3,9h-2.3l-3.3-9v9L300.7,112.6L300.7,112.6
		L300.7,112.6z"/>
	<path class="st0" d="M319.9,112.6v-10.2h4.1c2.9,0,3.8,0.7,3.8,2.9s-0.9,2.9-3.8,2.9h-2.7v4.4H319.9L319.9,112.6L319.9,112.6
		L319.9,112.6z M321.3,107h2.2c2.2,0,2.9-0.4,2.9-1.7s-0.7-1.7-2.9-1.7h-2.2V107L321.3,107L321.3,107L321.3,107z"/>
	<path class="st0" d="M333.2,112.6l3.5-10.2h2.3l3.5,10.2H341l-0.8-2.2h-4.8l-0.8,2.2H333.2L333.2,112.6L333.2,112.6z M339.8,109.1
		l-1.9-5.7l-1.9,5.7H339.8L339.8,109.1z"/>
	<path class="st0" d="M348.9,112.6v-10.2h2.5l4.6,9.4v-9.4h1.4v10.2h-2.5l-4.6-9.4v9.4H348.9z"/>
	<path class="st0" d="M363.5,102.4h1.6l3,5.3l3.1-5.3h1.6l-4,6.8v3.5h-1.4v-3.7l0.4-0.7h-1L363.5,102.4L363.5,102.4L363.5,102.4z"/>
</g>
</svg>
