<?xml version="1.0" encoding="UTF-8"?>
<svg id="Layer_1" data-name="Layer 1" xmlns="http://www.w3.org/2000/svg" viewBox="0 0 406.23 123.79">
  <defs>
    <style>
      .cls-1 {
        fill: #cfb590;
      }

      .cls-2 {
        fill: #d04704;
      }
    </style>
  </defs>
  <g>
    <path class="cls-2" d="m180.3,31.5c0,7.35-4.3,12.7-14.19,12.7h-39.85V.62h38.36c9.89,0,12.95,5.05,12.95,11.46,0,3.05-1.24,6.05-3.43,8.46,3.73,2.3,6.16,5.92,6.16,10.97h0Zm-42.85-13.76h23.16c3,0,5.73,0,5.73-4.54s-2.73-4.48-5.78-4.48h-23.1v9.03h0Zm31.64,13.21c0-4.62-2.73-4.62-5.73-4.62h-25.91v9.21h25.91c3,0,5.73,0,5.73-4.62v.02h0Z"/>
    <path class="cls-2" d="m222.7,34.93h-26.1l-4.67,9.27h-12.32L202.08.62h15.13l22.54,43.58h-12.4l-4.67-9.27h.02,0Zm-4.16-8.35l-8.84-17.69-8.91,17.69h17.75Z"/>
    <path class="cls-2" d="m283.9,31.26l8.03,12.95h-13.21l-7.03-11.65h-18.05v11.65h-11.21V.62h34.26c9.89,0,16.7,6.29,16.7,16,0,7.1-3.62,12.32-9.46,14.64h-.03Zm-30.26-8.1h19.94c3.35,0,8.59,0,8.59-6.54s-5.24-6.6-8.59-6.6h-19.94v13.13h0Z"/>
    <path class="cls-2" d="m296.41,22.35c0-14.45,8.22-22.35,27.4-22.35s27.4,7.97,27.4,22.35-8.29,22.48-27.4,22.48-27.4-7.97-27.4-22.48Zm43.58,0c0-8.84-4.48-12.95-16.19-12.95s-16.19,4.05-16.19,12.95,4.54,13.08,16.19,13.08,16.19-4.16,16.19-13.08Z"/>
    <path class="cls-2" d="m396.73,31.26l8.03,12.95h-13.21l-7.03-11.65h-18.05v11.65h-11.21V.62h34.26c9.89,0,16.7,6.29,16.7,16,0,7.1-3.62,12.32-9.46,14.64h-.03Zm-30.26-8.1c4.09.06,8.25.06,12.49,0,3.62-.04,7.18-.13,10.68-.24.53-.02,2.43-.19,3.86-1.71,1.49-1.56,1.47-3.54,1.47-4.6,0-6.6-5.24-6.6-8.59-6.6h-19.94v13.13l.02.02h.01Z"/>
    <path class="cls-2" d="m185.89,94.78h-10.02v-26.72l-16.19,26.72h-7.24l-16.19-26.72v26.72h-10.02v-38.95h13.53l16.3,27.49,16.3-27.49h13.53v38.95h0Z"/>
    <path class="cls-2" d="m200.37,63.78v7.9h31.17v7.24h-31.17v7.9h31.17v7.95h-41.19v-38.95h41.19v7.95h-31.17v.02h0Z"/>
    <path class="cls-2" d="m283.45,83.44c0,6.58-3.84,11.36-12.68,11.36h-35.61v-38.95h34.28c8.86,0,11.57,4.5,11.57,10.23,0,2.73-1.11,5.39-3.05,7.58,3.34,2.05,5.5,5.29,5.5,9.8v-.02h-.01Zm-38.29-12.3h20.71c2.68,0,5.13,0,5.13-4.07s-2.45-4.01-5.18-4.01h-20.65v8.08h-.01Zm28.26,11.8c0-4.13-2.45-4.13-5.13-4.13h-23.16v8.23h23.16c2.68,0,5.13,0,5.13-4.13v.02h0Z"/>
    <path class="cls-2" d="m296.73,63.78v7.9h31.17v7.24h-31.17v7.9h31.17v7.95h-41.19v-38.95h41.19v7.95h-31.17v.02h0Z"/>
    <path class="cls-2" d="m371.6,86.38v8.4h-40.06v-38.95h10.02v30.55h30.06-.02Z"/>
  </g>
  <g>
    <path class="cls-2" d="m0,.76v123.03h19.62V35.13c0-8.12,6.56-14.7,14.64-14.7h74.13V.76H0Z"/>
    <path class="cls-2" d="m92.22,24.8h-56.12c-6.56,0-11.87,5.31-11.87,11.87v36.25h67.97c8.54,0,15.47-6.92,15.47-15.47v-17.19c0-8.54-6.92-15.47-15.47-15.47h.02Zm-16.92,26.63c0,1.02-.83,1.85-1.85,1.85h-17.11v-4.99h17.11c1.02,0,1.85.83,1.85,1.85v1.3h0Z"/>
    <path class="cls-2" d="m92.09,75.68H24.1v48.11h67.97c8.54,0,15.47-6.92,15.47-15.47v-17.19c0-8.54-6.92-15.47-15.47-15.47,0,0,.02.02.02.02Zm-16.77,25.55c0,1.02-.83,1.85-1.85,1.85h-17.11v-4.99h17.11c1.02,0,1.85.83,1.85,1.85v1.3h0Z"/>
  </g>
  <g>
    <path class="cls-1" d="m127.08,102.38h7.03v1.32h-5.63v3.07h5.2v1.32h-5.2v4.54h-1.39v-10.25h0Z"/>
    <path class="cls-1" d="m140.93,109.41v-7.03h1.39v7.1c0,1.06.7,1.75,1.75,1.75h2.2c1.06,0,1.75-.7,1.75-1.75v-7.1h1.39v7.03c0,1.94-1.28,3.22-3.22,3.22h-2.05c-1.94,0-3.22-1.28-3.22-3.22h.01Z"/>
    <path class="cls-1" d="m156.89,102.38h4.11c2.85,0,3.79.73,3.79,2.92,0,1.75-.6,2.58-2.28,2.85l2.79,4.5h-1.68l-2.73-4.39h-2.6v4.39h-1.39v-10.27h0Zm1.39,4.62h2.2c2.17,0,2.86-.41,2.86-1.68s-.7-1.68-2.86-1.68h-2.2v3.37-.02h0Z"/>
    <path class="cls-1" d="m172.42,112.63v-10.25h2.49l4.62,9.37v-9.37h1.39v10.25h-2.49l-4.62-9.37v9.37h-1.39Z"/>
    <path class="cls-1" d="m188.68,102.38h1.39v10.25h-1.39v-10.25Z"/>
    <path class="cls-1" d="m196.89,102.38h9.08v1.32h-3.84v8.93h-1.39v-8.93h-3.84v-1.32h-.01Z"/>
    <path class="cls-1" d="m212.5,109.41v-7.03h1.39v7.1c0,1.06.7,1.75,1.75,1.75h2.2c1.06,0,1.75-.7,1.75-1.75v-7.1h1.39v7.03c0,1.94-1.28,3.22-3.22,3.22h-2.05c-1.94,0-3.22-1.28-3.22-3.22h.01Z"/>
    <path class="cls-1" d="m228.48,102.38h4.11c2.85,0,3.79.73,3.79,2.92,0,1.75-.6,2.58-2.28,2.85l2.79,4.5h-1.68l-2.73-4.39h-2.6v4.39h-1.39v-10.27h0Zm1.39,4.62h2.2c2.17,0,2.86-.41,2.86-1.68s-.7-1.68-2.86-1.68h-2.2v3.37-.02h0Z"/>
    <path class="cls-1" d="m244,112.63v-10.25h7.18v1.32h-5.78v3.07h5.05v1.32h-5.05v3.07h5.94v1.47h-7.34Z"/>
    <path class="cls-1" d="m271.53,102.1c2.17,0,3.77,1.02,4.56,2.92l-1.45.21c-.55-1.09-1.47-1.66-2.73-1.66h-.79c-1.94,0-3.3,1.3-3.3,3.22v1.47c0,1.92,1.36,3.22,3.3,3.22h.79c1.49,0,2.64-.79,3.03-2.09l1.45.21c-.7,2.11-2.51,3.35-4.88,3.35-3.15,0-5.28-2.19-5.28-5.43s2.13-5.41,5.28-5.41l.02-.02h0Z"/>
    <path class="cls-1" d="m288.28,102.1c3.15,0,5.28,2.17,5.28,5.41s-2.13,5.43-5.28,5.43-5.28-2.19-5.28-5.43,2.13-5.41,5.28-5.41Zm-3.69,4.69v1.47c0,1.92,1.36,3.22,3.3,3.22h.79c1.96,0,3.3-1.3,3.3-3.22v-1.47c0-1.92-1.34-3.22-3.3-3.22h-.79c-1.94,0-3.3,1.3-3.3,3.22Z"/>
    <path class="cls-1" d="m300.66,112.63v-10.25h2.49l3.37,9.23,3.37-9.23h2.49v10.25h-1.39v-9.04l-3.3,9.04h-2.34l-3.3-9.04v9.04h-1.39,0Z"/>
    <path class="cls-1" d="m319.87,112.63v-10.25h4.11c2.85,0,3.79.73,3.79,2.92s-.94,2.94-3.79,2.94h-2.73v4.39h-1.39.02,0Zm1.39-5.63h2.2c2.17,0,2.86-.41,2.86-1.68s-.7-1.68-2.86-1.68h-2.2v3.37-.02h0Z"/>
    <path class="cls-1" d="m333.21,112.63l3.52-10.25h2.26l3.5,10.25h-1.49l-.75-2.2h-4.81l-.75,2.2h-1.49,0Zm6.6-3.5l-1.94-5.67-1.94,5.67h3.9-.02Z"/>
    <path class="cls-1" d="m348.87,112.63v-10.25h2.49l4.62,9.37v-9.37h1.39v10.25h-2.49l-4.62-9.37v9.37h-1.39Z"/>
    <path class="cls-1" d="m363.45,102.38h1.58l3.03,5.35,3.13-5.35h1.6l-4.05,6.75v3.5h-1.39v-3.73l.38-.66h-.98l-3.32-5.86h.02Z"/>
  </g>
</svg>